<svg id="visual" viewBox="0 0 900 250" width="900" height="250" xmlns="http://www.w3.org/2000/svg" xmlns:xlink="http://www.w3.org/1999/xlink" version="1.1"><path d="M0 229L18.8 227.3C37.7 225.7 75.3 222.3 112.8 221.7C150.3 221 187.7 223 225.2 221C262.7 219 300.3 213 337.8 205.2C375.3 197.3 412.7 187.7 450.2 175C487.7 162.3 525.3 146.7 562.8 148.7C600.3 150.7 637.7 170.3 675.2 180.8C712.7 191.3 750.3 192.7 787.8 185.5C825.3 178.3 862.7 162.7 881.3 154.8L900 147L900 251L881.3 251C862.7 251 825.3 251 787.8 251C750.3 251 712.7 251 675.2 251C637.7 251 600.3 251 562.8 251C525.3 251 487.7 251 450.2 251C412.7 251 375.3 251 337.8 251C300.3 251 262.7 251 225.2 251C187.7 251 150.3 251 112.8 251C75.3 251 37.7 251 18.8 251L0 251Z" fill="#5058f2"></path><path d="M0 166L18.8 175.3C37.7 184.7 75.3 203.3 112.8 214.8C150.3 226.3 187.7 230.7 225.2 230.5C262.7 230.3 300.3 225.7 337.8 225.5C375.3 225.3 412.7 229.7 450.2 228.8C487.7 228 525.3 222 562.8 212.2C600.3 202.3 637.7 188.7 675.2 190.2C712.7 191.7 750.3 208.3 787.8 217.3C825.3 226.3 862.7 227.7 881.3 228.3L900 229L900 251L881.3 251C862.7 251 825.3 251 787.8 251C750.3 251 712.7 251 675.2 251C637.7 251 600.3 251 562.8 251C525.3 251 487.7 251 450.2 251C412.7 251 375.3 251 337.8 251C300.3 251 262.7 251 225.2 251C187.7 251 150.3 251 112.8 251C75.3 251 37.7 251 18.8 251L0 251Z" fill="#6b71f2"></path></svg>